<?xml version="1.0" encoding="UTF-8"?>
<!DOCTYPE svg PUBLIC "-//W3C//DTD SVG 1.1//EN" "http://www.w3.org/Graphics/SVG/1.1/DTD/svg11.dtd">
<svg xmlns="http://www.w3.org/2000/svg" version="1.1" width="2048px" height="2048px" style="shape-rendering:geometricPrecision; text-rendering:geometricPrecision; image-rendering:optimizeQuality; fill-rule:evenodd; clip-rule:evenodd" xmlns:xlink="http://www.w3.org/1999/xlink">
<g><path style="opacity:1" fill="#fdfdfd" d="M -0.5,-0.5 C 682.167,-0.5 1364.83,-0.5 2047.5,-0.5C 2047.5,682.167 2047.5,1364.83 2047.5,2047.5C 1364.83,2047.5 682.167,2047.5 -0.5,2047.5C -0.5,1364.83 -0.5,682.167 -0.5,-0.5 Z"/></g>
<g><path style="opacity:1" fill="#020202" d="M 1837.5,749.5 C 1839.83,749.5 1842.17,749.5 1844.5,749.5C 1839.97,818.855 1834.97,888.188 1829.5,957.5C 1809.85,941.021 1790.35,924.354 1771,907.5C 1745.4,939.08 1720.07,970.747 1695,1002.5C 1693.39,1001.9 1692.06,1000.9 1691,999.5C 1670.44,973.273 1650.27,946.773 1630.5,920C 1650.89,892.731 1671.89,865.898 1693.5,839.5C 1673.51,822.175 1653.84,804.508 1634.5,786.5C 1702.36,774.471 1770.02,762.137 1837.5,749.5 Z"/></g>
<g><path style="opacity:1" fill="#d8d8d7" d="M 300.5,782.5 C 267.907,781.508 235.24,781.174 202.5,781.5C 235.052,781.159 267.552,780.159 300,778.5C 300.49,779.793 300.657,781.127 300.5,782.5 Z"/></g>
<g><path style="opacity:1" fill="#010202" d="M 202.5,781.5 C 235.24,781.174 267.907,781.508 300.5,782.5C 374.148,878.809 448.148,974.809 522.5,1070.5C 522.369,1071.38 522.702,1072.04 523.5,1072.5C 524.5,975.502 524.833,878.502 524.5,781.5C 560.833,781.5 597.167,781.5 633.5,781.5C 635.496,942.291 636.163,1103.29 635.5,1264.5C 603.167,1264.5 570.833,1264.5 538.5,1264.5C 463.786,1169.41 389.786,1073.75 316.5,977.5C 316.5,976.833 316.167,976.5 315.5,976.5C 315.44,975.957 315.107,975.624 314.5,975.5C 313.5,1071.83 313.167,1168.16 313.5,1264.5C 313.5,1264.83 313.5,1265.17 313.5,1265.5C 276.833,1265.5 240.167,1265.5 203.5,1265.5C 202.502,1104.24 202.168,942.903 202.5,781.5 Z"/></g>
<g><path style="opacity:1" fill="#020202" d="M 1488.5,1264.5 C 1467.83,1264.5 1447.17,1264.5 1426.5,1264.5C 1426.5,1235.17 1426.5,1205.83 1426.5,1176.5C 1467.19,1125.81 1507.52,1074.81 1547.5,1023.5C 1506.85,972.863 1466.68,921.863 1427,870.5C 1426.5,840.835 1426.33,811.169 1426.5,781.5C 1447.17,781.333 1467.84,781.5 1488.5,782C 1551.9,862.391 1614.9,943.058 1677.5,1024C 1614.65,1104.34 1551.65,1184.51 1488.5,1264.5 Z"/></g>
<g><path style="opacity:1" fill="#77777a" d="M 524.5,781.5 C 524.833,878.502 524.5,975.502 523.5,1072.5C 522.702,1072.04 522.369,1071.38 522.5,1070.5C 523.167,974.167 523.833,877.833 524.5,781.5 Z"/></g>
<g><path style="opacity:1" fill="#020202" d="M 1064.5,1112.5 C 992.5,1112.5 920.5,1112.5 848.5,1112.5C 827.833,1112.5 807.167,1112.5 786.5,1112.5C 795.771,1149.94 819.105,1173.77 856.5,1184C 897.121,1192.79 934.454,1185.46 968.5,1162C 973.649,1157.69 978.649,1153.19 983.5,1148.5C 999.792,1165.29 1016.29,1181.96 1033,1198.5C 1035.85,1202.01 1038.68,1205.51 1041.5,1209C 1012.72,1242.23 976.383,1262.23 932.5,1269C 893.132,1275.02 854.132,1273.36 815.5,1264C 735.832,1238.66 690.665,1184.49 680,1101.5C 673.157,1021.02 703.657,959.52 771.5,917C 793.157,905.433 816.157,897.933 840.5,894.5C 845.731,894.556 850.731,893.889 855.5,892.5C 905.722,888.055 951.722,899.555 993.5,927C 1037.83,961.091 1062,1006.26 1066,1062.5C 1066.76,1079.21 1066.26,1095.88 1064.5,1112.5 Z"/></g>
<g><path style="opacity:1" fill="#424141" d="M 855.5,892.5 C 850.731,893.889 845.731,894.556 840.5,894.5C 845.269,893.111 850.269,892.444 855.5,892.5 Z"/></g>
<g><path style="opacity:1" fill="#fcfcfb" d="M 962.5,1046.5 C 903.833,1046.5 845.167,1046.5 786.5,1046.5C 786.5,1045.5 786.5,1044.5 786.5,1043.5C 793.907,1009.92 813.907,987.42 846.5,976C 877.043,968.187 905.377,972.854 931.5,990C 949.071,1004.98 959.404,1023.82 962.5,1046.5 Z"/></g>
<g><path style="opacity:1" fill="#f3e8ed" d="M 1271.5,781.5 C 1308.66,780.502 1346,780.168 1383.5,780.5C 1383.83,942.334 1383.5,1104 1382.5,1265.5C 1382.83,1104 1382.5,942.666 1381.5,781.5C 1345.17,781.5 1308.83,781.5 1272.5,781.5C 1272.17,781.5 1271.83,781.5 1271.5,781.5 Z"/></g>
<g><path style="opacity:1" fill="#cfd0cc" d="M 786.5,1043.5 C 786.5,1044.5 786.5,1045.5 786.5,1046.5C 845.167,1046.5 903.833,1046.5 962.5,1046.5C 903.669,1047.5 844.669,1047.83 785.5,1047.5C 785.232,1045.9 785.566,1044.57 786.5,1043.5 Z"/></g>
<g><path style="opacity:1" fill="#020302" d="M 1693.5,1044.5 C 1694.82,1044.33 1695.99,1044.66 1697,1045.5C 1721.12,1077.42 1745.96,1108.75 1771.5,1139.5C 1790.54,1122.46 1809.87,1105.79 1829.5,1089.5C 1835.32,1158.79 1840.32,1228.12 1844.5,1297.5C 1774.62,1285.76 1704.95,1273.09 1635.5,1259.5C 1654.36,1241.81 1673.7,1224.64 1693.5,1208C 1672.36,1180.69 1651.02,1153.52 1629.5,1126.5C 1651.24,1099.43 1672.57,1072.1 1693.5,1044.5 Z"/></g>
<g><path style="opacity:1" fill="#505356" d="M 633.5,781.5 C 634.5,781.5 635.5,781.5 636.5,781.5C 636.5,942.833 636.5,1104.17 636.5,1265.5C 603.662,1265.83 570.996,1265.5 538.5,1264.5C 570.833,1264.5 603.167,1264.5 635.5,1264.5C 636.163,1103.29 635.496,942.291 633.5,781.5 Z"/></g>
<g><path style="opacity:1" fill="#5e5e5c" d="M 315.5,976.5 C 314.833,1072.5 314.167,1168.5 313.5,1264.5C 313.167,1168.16 313.5,1071.83 314.5,975.5C 315.107,975.624 315.44,975.957 315.5,976.5 Z"/></g>
<g><path style="opacity:1" fill="#f7f8f2" d="M 848.5,1112.5 C 920.5,1112.5 992.5,1112.5 1064.5,1112.5C 1064.76,1113.98 1064.43,1115.31 1063.5,1116.5C 1061.55,1115.74 1059.72,1115.41 1058,1115.5C 1055.8,1117.73 1053.47,1117.73 1051,1115.5C 1050.61,1116.43 1049.95,1117.09 1049,1117.5C 1047.53,1114.81 1045.2,1114.81 1042,1117.5C 1040.91,1116.71 1039.75,1116.04 1038.5,1115.5C 1037.09,1116.81 1035.42,1117.64 1033.5,1118C 1034.7,1118.65 1034.7,1119.15 1033.5,1119.5C 1031.83,1118.5 1030.5,1117.17 1029.5,1115.5C 1027.5,1116.83 1025.5,1116.83 1023.5,1115.5C 1022.61,1116.32 1022.28,1117.32 1022.5,1118.5C 1017.68,1117.92 1013.01,1116.92 1008.5,1115.5C 1005.81,1115.48 1003.31,1116.15 1001,1117.5C 998.863,1115.88 997.197,1116.21 996,1118.5C 995.492,1116.1 994.325,1115.43 992.5,1116.5C 990.618,1115.91 988.785,1115.24 987,1114.5C 985.333,1115.83 983.667,1115.83 982,1114.5C 980.112,1116.92 978.112,1116.92 976,1114.5C 975,1115.5 974,1116.5 973,1117.5C 971.846,1116.26 970.512,1115.26 969,1114.5C 968.667,1115.17 968.333,1115.83 968,1116.5C 966.542,1115.25 965.042,1115.25 963.5,1116.5C 962.252,1115.96 961.085,1115.29 960,1114.5C 958.796,1115.47 958.296,1116.47 958.5,1117.5C 957.719,1116.27 957.219,1114.94 957,1113.5C 955.656,1115.34 954.156,1117.01 952.5,1118.5C 951.575,1117.36 950.741,1117.36 950,1118.5C 949.085,1117.67 948.419,1116.67 948,1115.5C 945.91,1116.15 943.743,1116.32 941.5,1116C 941.833,1116.33 942.167,1116.67 942.5,1117C 941.584,1117.37 940.75,1117.87 940,1118.5C 938.007,1117.33 936.007,1116.33 934,1115.5C 930.532,1116.8 927.032,1116.8 923.5,1115.5C 921.684,1118.06 919.851,1118.06 918,1115.5C 917.311,1116.36 916.478,1117.02 915.5,1117.5C 912.88,1114.3 910.88,1114.3 909.5,1117.5C 906.872,1115.37 904.039,1115.03 901,1116.5C 898.531,1114.17 896.197,1114.51 894,1117.5C 893.05,1116.98 892.216,1116.31 891.5,1115.5C 889.958,1116.75 888.458,1116.75 887,1115.5C 885.609,1117.72 883.943,1117.72 882,1115.5C 880.428,1117.59 878.595,1117.59 876.5,1115.5C 873.067,1116.32 869.733,1115.82 866.5,1114C 860.319,1113.83 854.319,1113.33 848.5,1112.5 Z"/></g>
<g><path style="opacity:1" fill="#c9c4cf" d="M 202.5,781.5 C 202.168,942.903 202.502,1104.24 203.5,1265.5C 202.167,1185.17 201.5,1104.5 201.5,1023.5C 201.5,942.666 201.833,861.999 202.5,781.5 Z"/></g>
<g><path style="opacity:1" fill="#d4d4d1" d="M 315.5,976.5 C 316.167,976.5 316.5,976.833 316.5,977.5C 316.166,1073.67 315.166,1169.67 313.5,1265.5C 313.5,1265.17 313.5,1264.83 313.5,1264.5C 314.167,1168.5 314.833,1072.5 315.5,976.5 Z"/></g>
<g><path style="opacity:1" fill="#f4f0f7" d="M 1108.5,781.5 C 1108.5,942.833 1108.5,1104.17 1108.5,1265.5C 1145.5,1265.5 1182.5,1265.5 1219.5,1265.5C 1182.34,1266.5 1145,1266.83 1107.5,1266.5C 1107.67,1107.17 1107.5,947.833 1107,788.5C 1106.69,786.444 1106.19,784.444 1105.5,782.5C 1106.32,781.614 1107.32,781.281 1108.5,781.5 Z"/></g>
<g><path style="opacity:1" fill="#70686e" d="M 1271.5,781.5 C 1271.83,781.5 1272.17,781.5 1272.5,781.5C 1272.5,942.5 1272.5,1103.5 1272.5,1264.5C 1308.83,1264.5 1345.17,1264.5 1381.5,1264.5C 1381.5,1103.5 1381.5,942.5 1381.5,781.5C 1382.5,942.666 1382.83,1104 1382.5,1265.5C 1345.5,1265.5 1308.5,1265.5 1271.5,1265.5C 1271.5,1104.17 1271.5,942.833 1271.5,781.5 Z"/></g>
<g><path style="opacity:1" fill="#010101" d="M 1272.5,781.5 C 1308.83,781.5 1345.17,781.5 1381.5,781.5C 1381.5,942.5 1381.5,1103.5 1381.5,1264.5C 1345.17,1264.5 1308.83,1264.5 1272.5,1264.5C 1272.5,1103.5 1272.5,942.5 1272.5,781.5 Z"/></g>
<g><path style="opacity:1" fill="#6c686c" d="M 1108.5,781.5 C 1108.83,781.5 1109.17,781.5 1109.5,781.5C 1109.5,781.833 1109.5,782.167 1109.5,782.5C 1109.17,943.334 1109.5,1104 1110.5,1264.5C 1146.5,1264.5 1182.5,1264.5 1218.5,1264.5C 1218.5,1103.5 1218.5,942.5 1218.5,781.5C 1219.5,942.666 1219.83,1104 1219.5,1265.5C 1182.5,1265.5 1145.5,1265.5 1108.5,1265.5C 1108.5,1104.17 1108.5,942.833 1108.5,781.5 Z"/></g>
<g><path style="opacity:1" fill="#07040d" d="M 1109.5,782.5 C 1111.09,782.628 1112.42,783.295 1113.5,784.5C 1112.12,786.289 1111.12,788.289 1110.5,790.5C 1111.33,792.941 1111.33,795.107 1110.5,797C 1112.12,797.853 1112.46,798.853 1111.5,800C 1112.93,801.907 1113.6,804.074 1113.5,806.5C 1113.26,823.717 1113.26,840.883 1113.5,858C 1112.83,859 1112.17,860 1111.5,861C 1112.83,863.667 1112.83,866.333 1111.5,869C 1112.43,869.388 1113.09,870.055 1113.5,871C 1112.55,891.192 1112.55,911.359 1113.5,931.5C 1112.96,932.748 1112.29,933.915 1111.5,935C 1114,936.549 1114,938.216 1111.5,940C 1111.86,944.504 1112.53,949.17 1113.5,954C 1112.83,958.333 1112.17,962.667 1111.5,967C 1112.24,969.235 1112.24,971.235 1111.5,973C 1112.17,974.667 1112.83,976.333 1113.5,978C 1112.32,992.67 1112.32,1006.84 1113.5,1020.5C 1112.49,1025.81 1111.99,1031.14 1112,1036.5C 1112.65,1035.3 1113.15,1035.3 1113.5,1036.5C 1112.36,1037.43 1112.36,1038.26 1113.5,1039C 1112.34,1040.01 1111.68,1041.34 1111.5,1043C 1111.81,1058.63 1111.81,1074.47 1111.5,1090.5C 1111.53,1092.03 1112.2,1093.2 1113.5,1094C 1112.28,1095.53 1111.61,1097.36 1111.5,1099.5C 1111.61,1101.64 1112.28,1103.47 1113.5,1105C 1112.21,1108.74 1111.54,1112.74 1111.5,1117C 1112.18,1128.06 1111.84,1139.22 1110.5,1150.5C 1110.98,1188.85 1110.98,1226.85 1110.5,1264.5C 1109.5,1104 1109.17,943.334 1109.5,782.5 Z"/></g>
<g><path style="opacity:1" fill="#010101" d="M 1109.5,782.5 C 1109.5,782.167 1109.5,781.833 1109.5,781.5C 1145.83,781.5 1182.17,781.5 1218.5,781.5C 1218.5,942.5 1218.5,1103.5 1218.5,1264.5C 1182.5,1264.5 1146.5,1264.5 1110.5,1264.5C 1110.98,1226.85 1110.98,1188.85 1110.5,1150.5C 1111.84,1139.22 1112.18,1128.06 1111.5,1117C 1111.54,1112.74 1112.21,1108.74 1113.5,1105C 1112.28,1103.47 1111.61,1101.64 1111.5,1099.5C 1111.61,1097.36 1112.28,1095.53 1113.5,1094C 1112.2,1093.2 1111.53,1092.03 1111.5,1090.5C 1111.81,1074.47 1111.81,1058.63 1111.5,1043C 1111.68,1041.34 1112.34,1040.01 1113.5,1039C 1112.36,1038.26 1112.36,1037.43 1113.5,1036.5C 1113.15,1035.3 1112.65,1035.3 1112,1036.5C 1111.99,1031.14 1112.49,1025.81 1113.5,1020.5C 1112.32,1006.84 1112.32,992.67 1113.5,978C 1112.83,976.333 1112.17,974.667 1111.5,973C 1112.24,971.235 1112.24,969.235 1111.5,967C 1112.17,962.667 1112.83,958.333 1113.5,954C 1112.53,949.17 1111.86,944.504 1111.5,940C 1114,938.216 1114,936.549 1111.5,935C 1112.29,933.915 1112.96,932.748 1113.5,931.5C 1112.55,911.359 1112.55,891.192 1113.5,871C 1113.09,870.055 1112.43,869.388 1111.5,869C 1112.83,866.333 1112.83,863.667 1111.5,861C 1112.17,860 1112.83,859 1113.5,858C 1113.26,840.883 1113.26,823.717 1113.5,806.5C 1113.6,804.074 1112.93,801.907 1111.5,800C 1112.46,798.853 1112.12,797.853 1110.5,797C 1111.33,795.107 1111.33,792.941 1110.5,790.5C 1111.12,788.289 1112.12,786.289 1113.5,784.5C 1112.42,783.295 1111.09,782.628 1109.5,782.5 Z"/></g>
<g><path style="opacity:1" fill="#6e6a75" d="M 1426.5,1176.5 C 1426.5,1205.83 1426.5,1235.17 1426.5,1264.5C 1447.17,1264.5 1467.83,1264.5 1488.5,1264.5C 1467.67,1265.5 1446.67,1265.83 1425.5,1265.5C 1425.17,1235.66 1425.5,1206 1426.5,1176.5 Z"/></g>
</svg>
